<svg width="274" height="43" fill="none" xmlns="http://www.w3.org/2000/svg"><path d="M14.76 30.163c-1.525.627-2.632.927-4.473.927-2.631 0-5.305-.627-7.277-2.174C1.18 27.476 0 25.383 0 22.45L.053 8.02H5.22l-.046 14.43c0 1.138.389 1.908 1.005 2.385.959.76 2.498 1.06 4.108 1.06 2.201 0 3.635-.645 4.472-2.659l.051-15.233h5.176v23.935a10.23 10.23 0 0 1-3.01 7.255 10.452 10.452 0 0 1-7.252 3.065l-5.254.08-.106-5.133 5.299-.115a5.311 5.311 0 0 0 3.66-1.564 5.094 5.094 0 0 0 1.487-3.588l-.053-1.775h.002Zm59.347-14.438c0-5.964 4.69-8.632 10.067-8.632 5.386 0 10.076 2.668 10.076 8.632V22.9c0 5.963-4.69 8.641-10.076 8.641-5.377 0-10.067-2.668-10.067-8.641v-7.175Zm5.166 0V22.9c0 2.906 2.525 3.455 4.9 3.455 2.378 0 4.913-.557 4.913-3.455v-7.175c0-2.889-2.535-3.445-4.912-3.445-2.376 0-4.9.548-4.9 3.445Zm79.757-7.66v15.383c0 2.872-1.144 5-3.009 6.467-1.901 1.485-4.489 2.165-7.278 2.165-2.782 0-5.368-.672-7.269-2.165-1.876-1.467-3.018-3.595-3.018-6.467V7.923h5.174v15.525c0 1.113.379 1.9 1.013 2.393.923.717 2.394 1.052 4.1 1.052 1.707 0 3.186-.335 4.1-1.06.634-.485 1.023-1.272 1.023-2.385V8.065h5.164Zm-88.118 12.59c0 7.078-5.305 10.886-11.87 10.886-6.566 0-12.294-3.808-12.294-10.886V10.89c0-7.218 5.659-10.885 12.294-10.885 3.748-.123 6.978 1.555 9.566 4.162l-3.654 3.667c-1.573-1.582-3.519-2.739-5.833-2.642-3.713-.027-7.2 1.423-7.2 5.698 0 3.254-.008 6.504-.008 9.764 0 4.135 3.477 5.7 7.129 5.7 3.545 0 6.133-1.212 6.459-5.099h-3.978l-.026-5.186h9.415v4.586-.001Zm-33.044.77h-5.315c-1.365.016-4.172-.107-4.241 1.871-.098 2.529 2.551 3.059 4.433 3.059 4.156 0 5.123-1.132 5.123-4.93Zm-5.333-5.17h5.333v-.52c0-1.114-.387-1.9-1.02-2.387-.925-.725-2.394-1.06-4.102-1.06-1.18 0-2.456.15-3.52.69l-2.324-4.622c.872-.45 1.815-.751 2.772-.955a15.68 15.68 0 0 1 3.072-.3c2.782 0 5.368.672 7.269 2.165 1.875 1.467 3.02 3.597 3.02 6.467v7.175c0 5.963-4.911 8.642-10.29 8.642-4.963 0-9.626-2.519-9.626-8.2 0-5.779 4.753-7.095 9.416-7.095Zm65.05-.53c0-5.964 4.691-8.632 10.068-8.632 5.387 0 10.076 2.668 10.076 8.632V22.9c0 5.963-4.689 8.641-10.066 8.641-5.387 0-10.078-2.668-10.078-8.641v-7.175Zm5.166 0V22.9c0 2.906 2.526 3.455 4.902 3.455 2.377 0 4.91-.557 4.91-3.455v-7.175c0-2.889-2.533-3.445-4.9-3.445-2.386 0-4.912.548-4.912 3.445Zm18.525 15.171V15.7c0-2.872 1.152-5.002 3.018-6.469 1.901-1.493 4.489-2.173 7.269-2.173.978 0 2.024.088 3.071.308l.022.005-.855 5.11a8.091 8.091 0 0 0-.196-.043 10.214 10.214 0 0 0-2.042-.185c-1.698 0-3.175.327-4.1 1.052-.626.495-1.012 1.271-1.012 2.393v15.198h-5.175ZM193.447 8.41c.765 0 1.434.123 2.007.38.562.255 1.002.618 1.311 1.095.299.468.457 1.035.457 1.688 0 .645-.158 1.21-.457 1.687-.309.478-.749.85-1.311 1.096-.573.255-1.242.389-2.007.389h-2.007v2.563h-1.645V8.41h3.652Zm-.08 4.93c.714 0 1.258-.15 1.637-.46.37-.3.554-.742.554-1.307 0-.567-.184-1.008-.554-1.308-.379-.309-.923-.46-1.637-.46h-1.927v3.535h1.927Zm11.424 3.966-1.804-2.606c-.08.01-.194.018-.344.018h-2.007v2.588h-1.645V8.41h3.652c.765 0 1.434.123 2.005.38.573.255 1.005.618 1.312 1.095.3.468.458 1.035.458 1.688 0 .672-.168 1.245-.493 1.732-.325.486-.792.84-1.399 1.078l2.041 2.925h-1.777l.001-.002Zm-.036-5.733c0-.567-.185-1.008-.555-1.308-.368-.309-.914-.46-1.637-.46h-1.927v3.551h1.927c.723 0 1.269-.158 1.637-.468.37-.308.555-.75.555-1.315Zm7.639 5.867a5.145 5.145 0 0 1-2.447-.592 4.437 4.437 0 0 1-1.706-1.643 4.525 4.525 0 0 1-.626-2.352c0-.857.211-1.642.626-2.34a4.414 4.414 0 0 1 1.706-1.643 5.128 5.128 0 0 1 2.447-.594c.906 0 1.725.204 2.445.594a4.346 4.346 0 0 1 1.708 1.633c.414.698.624 1.485.624 2.352 0 .873-.21 1.66-.624 2.358a4.408 4.408 0 0 1-1.708 1.635c-.72.388-1.539.592-2.445.592Zm0-1.45a3.17 3.17 0 0 0 1.602-.405 2.887 2.887 0 0 0 1.109-1.115 3.22 3.22 0 0 0 .403-1.617 3.22 3.22 0 0 0-.403-1.608 2.893 2.893 0 0 0-1.109-1.114 3.166 3.166 0 0 0-1.602-.405 3.14 3.14 0 0 0-1.594.405 2.9 2.9 0 0 0-1.117 1.114 3.222 3.222 0 0 0-.405 1.608c0 .602.133 1.132.405 1.617.272.478.643.848 1.117 1.115a3.137 3.137 0 0 0 1.594.405Zm8.176-6.194V12.5h4.276v1.405h-4.276v3.401h-1.647V8.41h6.469v1.386h-4.822Zm6.424-1.386h1.645v8.896h-1.645V8.41Zm5.835 1.395h-2.94V8.41h7.525v1.395h-2.94v7.501h-1.645V9.805ZM193.94 31.063c-.907 0-1.725-.193-2.447-.592a4.338 4.338 0 0 1-1.716-1.643c-.414-.698-.616-1.475-.616-2.342 0-.865.202-1.651.616-2.35a4.386 4.386 0 0 1 1.716-1.635c.722-.396 1.54-.591 2.447-.591.898 0 1.715.195 2.447.591a4.36 4.36 0 0 1 1.706 1.635c.413.69.616 1.477.616 2.35 0 .875-.203 1.662-.616 2.352a4.356 4.356 0 0 1-1.706 1.633c-.732.399-1.551.594-2.447.594v-.002Zm0-1.448c.589 0 1.117-.132 1.592-.397a2.978 2.978 0 0 0 1.119-1.123c.272-.477.403-1.015.403-1.609 0-.591-.131-1.13-.403-1.606a2.92 2.92 0 0 0-1.119-1.124 3.204 3.204 0 0 0-1.592-.396 3.24 3.24 0 0 0-1.602.396 2.888 2.888 0 0 0-1.109 1.124 3.19 3.19 0 0 0-.405 1.606c0 .594.133 1.132.405 1.609.264.478.642.848 1.109 1.123a3.24 3.24 0 0 0 1.602.397Zm12.32 1.325-1.804-2.607c-.08.01-.194.01-.344.01h-2.007v2.597h-1.645v-8.907h3.652c.766 0 1.435.125 2.007.382.571.255 1.003.618 1.31 1.095.3.476.458 1.043.458 1.686 0 .674-.168 1.247-.493 1.734-.325.485-.792.846-1.399 1.086l2.042 2.925h-1.778l.001-.001Zm-.035-5.744c0-.565-.185-.998-.556-1.306-.368-.302-.914-.46-1.636-.46h-1.926v3.551h1.926c.722 0 1.268-.158 1.636-.468.371-.308.556-.742.556-1.317Zm14.872-3.163v8.907h-1.356l-4.884-6.035v6.035h-1.636v-8.907h1.354l4.894 6.027v-6.027h1.628Zm6.529 9.03c-.906 0-1.725-.193-2.445-.592a4.253 4.253 0 0 1-1.708-1.643 4.506 4.506 0 0 1-.624-2.342c0-.865.211-1.651.624-2.35a4.299 4.299 0 0 1 1.708-1.635c.72-.396 1.539-.591 2.445-.591.898 0 1.717.195 2.447.591.722.39 1.293.937 1.708 1.635.413.69.616 1.477.616 2.35 0 .875-.204 1.662-.616 2.352a4.361 4.361 0 0 1-1.708 1.633c-.73.399-1.549.594-2.447.594v-.002Zm0-1.448c.591 0 1.119-.132 1.594-.397a2.965 2.965 0 0 0 1.117-1.123 3.19 3.19 0 0 0 .405-1.609 3.19 3.19 0 0 0-.405-1.606 2.908 2.908 0 0 0-1.117-1.124 3.206 3.206 0 0 0-1.594-.396c-.589 0-1.125.131-1.602.396a2.896 2.896 0 0 0-1.107 1.124c-.274.476-.405 1.015-.405 1.606 0 .594.131 1.132.405 1.609.264.478.642.848 1.107 1.123a3.247 3.247 0 0 0 1.602.397Zm8.194-6.185h-2.94v-1.397h7.525v1.397h-2.94v7.51h-1.645v-7.51Zm13.71-1.397v8.907h-1.645v-3.817H243.3v3.817h-1.655v-8.907h1.655v3.677h4.585v-3.677h1.645Zm2.385 0h1.645v8.907h-1.645v-8.907Zm11.916 0v8.907h-1.355l-4.893-6.035v6.035h-1.629v-8.907h1.356l4.884 6.027v-6.027h1.637Zm8.439 4.348h1.557v3.552a4.984 4.984 0 0 1-1.592.84 6.144 6.144 0 0 1-1.874.292c-.908 0-1.726-.195-2.447-.594a4.317 4.317 0 0 1-1.716-1.633c-.413-.69-.616-1.477-.616-2.352 0-.873.203-1.66.616-2.35a4.32 4.32 0 0 1 1.716-1.635c.731-.396 1.557-.591 2.464-.591.748 0 1.426.123 2.033.363.608.247 1.117.61 1.531 1.087l-1.038 1.015a3.317 3.317 0 0 0-2.447-1.015c-.625 0-1.178.131-1.663.388a2.88 2.88 0 0 0-1.144 1.113c-.273.469-.415 1.015-.415 1.625 0 .594.142 1.132.415 1.6a2.97 2.97 0 0 0 1.144 1.122c.483.273 1.038.407 1.655.407.686 0 1.293-.15 1.821-.46V26.38Z" fill="#333"/><path fill-rule="evenodd" clip-rule="evenodd" d="M174.078.908h2.156v38.4h-2.156V.908Z" fill="#333"/></svg>