<svg width="274" height="43" viewBox="0 0 274 43" fill="none" xmlns="http://www.w3.org/2000/svg">
<path d="M14.7591 30.163C13.2352 30.7897 12.128 31.0897 10.287 31.0897C7.65592 31.0897 4.98166 30.463 3.00958 28.9164C1.18026 27.4764 0 25.3831 0 22.4497L0.0531225 8.02139H5.21904L5.17422 22.4497C5.17422 23.5881 5.56266 24.358 6.17852 24.8347C7.138 25.5947 8.67682 25.8947 10.287 25.8947C12.4882 25.8947 13.9224 25.2497 14.7591 23.2364L14.8105 8.00305H19.9864V31.9381C19.9864 34.7747 18.8327 37.3364 16.9768 39.1931C15.1276 41.048 12.5579 42.2147 9.72428 42.258L4.47038 42.3381L4.36414 37.2047L9.66287 37.0897C11.0805 37.063 12.3819 36.4714 13.3232 35.5264C14.2395 34.598 14.8105 33.3347 14.8105 31.9381L14.7574 30.163H14.7591Z" fill="#333333"/>
<path d="M74.1074 15.7247C74.1074 9.76135 78.7969 7.09302 84.1737 7.09302C89.5604 7.09302 94.2499 9.76135 94.2499 15.7247V22.8997C94.2499 28.863 89.5604 31.5414 84.1737 31.5414C78.7969 31.5414 74.1074 28.873 74.1074 22.8997V15.7247ZM79.2734 15.7247V22.8997C79.2734 25.8064 81.7982 26.3547 84.1737 26.3547C86.5508 26.3547 89.0856 25.798 89.0856 22.8997V15.7247C89.0856 12.8364 86.5508 12.2797 84.1737 12.2797C81.7982 12.2797 79.2734 12.828 79.2734 15.7247Z" fill="#333333"/>
<path d="M159.03 8.06464V23.448C159.03 26.3196 157.886 28.448 156.021 29.9146C154.12 31.3996 151.532 32.0796 148.743 32.0796C145.961 32.0796 143.375 31.408 141.474 29.9146C139.598 28.448 138.456 26.3196 138.456 23.448V7.92297H143.63V23.448C143.63 24.5613 144.009 25.348 144.643 25.8413C145.566 26.558 147.037 26.893 148.743 26.893C150.45 26.893 151.929 26.558 152.843 25.833C153.477 25.348 153.866 24.5613 153.866 23.448V8.06464H159.03Z" fill="#333333"/>
<path d="M70.9122 20.6547C70.9122 27.733 65.6068 31.5414 59.0415 31.5414C52.4762 31.5414 46.7476 27.733 46.7476 20.6547C46.7476 17.3947 46.7476 14.143 46.7476 10.8914C46.7476 3.67303 52.4065 0.00636757 59.0415 0.00636757C62.7898 -0.116966 66.0202 1.56137 68.6081 4.16803L64.9544 7.8347C63.3808 6.25303 61.4352 5.09637 59.1212 5.19303C55.4078 5.16637 51.9218 6.61637 51.9218 10.8914C51.9218 14.1447 51.9135 17.3947 51.9135 20.6547C51.9135 24.7897 55.3895 26.3547 59.0415 26.3547C62.5873 26.3547 65.1752 25.143 65.5006 21.2564H61.5232L61.4967 16.0697H70.9122V20.6564V20.6547Z" fill="#333333"/>
<path d="M37.8682 21.4248H32.5529C31.1884 21.4414 28.3813 21.3181 28.3116 23.2964C28.2137 25.8248 30.863 26.3548 32.7455 26.3548C36.9005 26.3548 37.8682 25.2231 37.8682 21.4248ZM32.5347 16.2548H37.8682V15.7348C37.8682 14.6214 37.4815 13.8348 36.8473 13.3481C35.9227 12.6231 34.4536 12.2881 32.7455 12.2881C31.5669 12.2881 30.2903 12.4381 29.2263 12.9781L26.9023 8.35644C27.7738 7.90644 28.7167 7.60477 29.6745 7.40144C30.7319 7.18977 31.7694 7.10144 32.7455 7.10144C35.5276 7.10144 38.1139 7.77311 40.0146 9.26644C41.8904 10.7331 43.0342 12.8631 43.0342 15.7331V22.9081C43.0342 28.8714 38.1239 31.5498 32.7455 31.5498C27.7821 31.5498 23.1191 29.0314 23.1191 23.3498C23.1191 17.5714 27.8717 16.2548 32.5347 16.2548Z" fill="#333333"/>
<path d="M97.585 15.7247C97.585 9.76135 102.276 7.09302 107.653 7.09302C113.04 7.09302 117.729 9.76135 117.729 15.7247V22.8997C117.729 28.863 113.04 31.5414 107.663 31.5414C102.276 31.5414 97.585 28.873 97.585 22.8997V15.7247ZM102.751 15.7247V22.8997C102.751 25.8064 105.277 26.3547 107.653 26.3547C110.03 26.3547 112.563 25.798 112.563 22.8997V15.7247C112.563 12.8364 110.03 12.2797 107.663 12.2797C105.277 12.2797 102.751 12.828 102.751 15.7247Z" fill="#333333"/>
<path d="M121.276 30.8964V15.6998C121.276 12.8281 122.428 10.6981 124.294 9.23144C126.195 7.73811 128.783 7.05811 131.563 7.05811C132.541 7.05811 133.587 7.14644 134.634 7.36644L134.656 7.37144L133.801 12.4814C133.736 12.4664 133.67 12.4514 133.605 12.4381C132.971 12.3064 132.267 12.2531 131.563 12.2531C129.865 12.2531 128.388 12.5798 127.463 13.3048C126.837 13.7998 126.451 14.5764 126.451 15.6981V30.8964H121.276Z" fill="#333333"/>
<path d="M193.447 8.4097C194.212 8.4097 194.881 8.53303 195.454 8.7897C196.016 9.0447 196.456 9.40803 196.765 9.8847C197.064 10.353 197.222 10.9197 197.222 11.573C197.222 12.218 197.064 12.783 196.765 13.2597C196.456 13.738 196.016 14.1097 195.454 14.3564C194.881 14.6114 194.212 14.7447 193.447 14.7447H191.44V17.308H189.795V8.4097H193.447ZM193.367 13.3397C194.081 13.3397 194.625 13.1897 195.004 12.8797C195.374 12.5797 195.558 12.138 195.558 11.573C195.558 11.0064 195.374 10.5647 195.004 10.2647C194.625 9.95637 194.081 9.8047 193.367 9.8047H191.44V13.3397H193.367ZM204.791 17.3064L202.987 14.6997C202.907 14.7097 202.793 14.718 202.643 14.718H200.636V17.3064H198.991V8.4097H202.643C203.408 8.4097 204.077 8.53303 204.648 8.7897C205.221 9.0447 205.653 9.40803 205.96 9.8847C206.26 10.353 206.418 10.9197 206.418 11.573C206.418 12.2447 206.25 12.818 205.925 13.3047C205.6 13.7914 205.133 14.1447 204.526 14.383L206.567 17.308H204.79L204.791 17.3064ZM204.755 11.573C204.755 11.0064 204.57 10.5647 204.2 10.2647C203.832 9.95637 203.286 9.8047 202.563 9.8047H200.636V13.3564H202.563C203.286 13.3564 203.832 13.198 204.2 12.888C204.57 12.5797 204.755 12.138 204.755 11.573ZM212.394 17.4397C211.496 17.4397 210.678 17.2364 209.947 16.848C209.225 16.4497 208.654 15.9014 208.241 15.2047C207.826 14.5064 207.615 13.7197 207.615 12.853C207.615 11.9964 207.826 11.2114 208.241 10.513C208.654 9.8147 209.225 9.26637 209.947 8.8697C210.678 8.4797 211.496 8.27637 212.394 8.27637C213.3 8.27637 214.119 8.4797 214.839 8.8697C215.57 9.26637 216.134 9.80637 216.547 10.503C216.961 11.2014 217.171 11.988 217.171 12.8547C217.171 13.728 216.961 14.5147 216.547 15.213C216.134 15.903 215.57 16.4497 214.839 16.848C214.119 17.2364 213.3 17.4397 212.394 17.4397ZM212.394 15.9897C212.983 15.9897 213.519 15.858 213.996 15.5847C214.462 15.318 214.839 14.948 215.105 14.4697C215.377 13.9847 215.508 13.4547 215.508 12.853C215.508 12.2614 215.377 11.7314 215.105 11.2447C214.839 10.768 214.462 10.398 213.996 10.1314C213.519 9.85803 212.983 9.72637 212.394 9.72637C211.805 9.72637 211.277 9.85803 210.8 10.1314C210.326 10.398 209.955 10.768 209.683 11.2447C209.411 11.7314 209.278 12.2614 209.278 12.853C209.278 13.4547 209.411 13.9847 209.683 14.4697C209.955 14.948 210.326 15.318 210.8 15.5847C211.277 15.858 211.805 15.9897 212.394 15.9897ZM220.57 9.79637V12.4997H224.846V13.9047H220.57V17.3064H218.923V8.4097H225.392V9.79637H220.57ZM226.994 8.4097H228.639V17.3064H226.994V8.4097ZM232.829 9.8047H229.889V8.4097H237.414V9.8047H234.474V17.3064H232.829V9.8047ZM193.94 31.063C193.033 31.063 192.215 30.8697 191.493 30.4714C190.763 30.083 190.2 29.5347 189.777 28.828C189.363 28.1297 189.161 27.353 189.161 26.4864C189.161 25.6214 189.363 24.8347 189.777 24.1364C190.2 23.438 190.763 22.8914 191.493 22.5014C192.215 22.1047 193.033 21.9097 193.94 21.9097C194.838 21.9097 195.655 22.1047 196.387 22.5014C197.107 22.8914 197.68 23.438 198.093 24.1364C198.506 24.8264 198.709 25.613 198.709 26.4864C198.709 27.3614 198.506 28.148 198.093 28.838C197.68 29.5347 197.107 30.083 196.387 30.4714C195.655 30.8697 194.836 31.0647 193.94 31.0647V31.063ZM193.94 29.6147C194.529 29.6147 195.057 29.483 195.532 29.218C196.008 28.943 196.377 28.573 196.651 28.0947C196.923 27.618 197.054 27.0797 197.054 26.4864C197.054 25.8947 196.923 25.3564 196.651 24.8797C196.377 24.4014 196.008 24.023 195.532 23.7564C195.057 23.4914 194.529 23.3597 193.94 23.3597C193.35 23.3597 192.813 23.4914 192.338 23.7564C191.871 24.023 191.493 24.4014 191.229 24.8797C190.957 25.3564 190.824 25.8947 190.824 26.4864C190.824 27.0797 190.957 27.618 191.229 28.0947C191.493 28.573 191.871 28.943 192.338 29.218C192.813 29.483 193.35 29.6147 193.94 29.6147ZM206.26 30.9397L204.456 28.333C204.376 28.343 204.262 28.343 204.112 28.343H202.105V30.9397H200.46V22.033H204.112C204.878 22.033 205.547 22.158 206.119 22.4147C206.69 22.6697 207.122 23.033 207.429 23.5097C207.729 23.9864 207.887 24.553 207.887 25.1964C207.887 25.8697 207.719 26.443 207.394 26.9297C207.069 27.4147 206.602 27.7764 205.995 28.0164L208.037 30.9414H206.259L206.26 30.9397ZM206.225 25.1964C206.225 24.6314 206.04 24.198 205.669 23.8897C205.301 23.588 204.755 23.4297 204.033 23.4297H202.107V26.9814H204.033C204.755 26.9814 205.301 26.823 205.669 26.513C206.04 26.2047 206.225 25.7714 206.225 25.1964ZM221.097 22.033V30.9397H219.741L214.857 24.9047V30.9397H213.221V22.033H214.575L219.469 28.0597V22.033H221.097ZM227.626 31.063C226.72 31.063 225.901 30.8697 225.181 30.4714C224.451 30.083 223.886 29.5347 223.473 28.828C223.06 28.1297 222.849 27.353 222.849 26.4864C222.849 25.6214 223.06 24.8347 223.473 24.1364C223.886 23.438 224.451 22.8914 225.181 22.5014C225.901 22.1047 226.72 21.9097 227.626 21.9097C228.524 21.9097 229.343 22.1047 230.073 22.5014C230.795 22.8914 231.366 23.438 231.781 24.1364C232.194 24.8264 232.397 25.613 232.397 26.4864C232.397 27.3614 232.193 28.148 231.781 28.838C231.366 29.5347 230.795 30.083 230.073 30.4714C229.343 30.8697 228.524 31.0647 227.626 31.0647V31.063ZM227.626 29.6147C228.217 29.6147 228.745 29.483 229.22 29.218C229.695 28.943 230.065 28.573 230.337 28.0947C230.609 27.618 230.742 27.0797 230.742 26.4864C230.742 25.8947 230.609 25.3564 230.337 24.8797C230.065 24.4014 229.695 24.023 229.22 23.7564C228.745 23.4914 228.217 23.3597 227.626 23.3597C227.037 23.3597 226.501 23.4914 226.024 23.7564C225.559 24.023 225.181 24.4014 224.917 24.8797C224.643 25.3564 224.512 25.8947 224.512 26.4864C224.512 27.0797 224.643 27.618 224.917 28.0947C225.181 28.573 225.559 28.943 226.024 29.218C226.501 29.483 227.037 29.6147 227.626 29.6147ZM235.82 23.4297H232.88V22.033H240.405V23.4297H237.465V30.9397H235.82V23.4297ZM249.53 22.033V30.9397H247.885V27.123H243.3V30.9397H241.645V22.033H243.3V25.7097H247.885V22.033H249.53ZM251.915 22.033H253.56V30.9397H251.915V22.033ZM263.831 22.033V30.9397H262.476L257.583 24.9047V30.9397H255.954V22.033H257.31L262.194 28.0597V22.033H263.831ZM272.27 26.3814H273.827V29.933C273.371 30.2947 272.843 30.578 272.235 30.773C271.628 30.9664 271.002 31.0647 270.361 31.0647C269.453 31.0647 268.635 30.8697 267.914 30.4714C267.184 30.083 266.611 29.5347 266.198 28.838C265.785 28.148 265.582 27.3614 265.582 26.4864C265.582 25.613 265.785 24.8264 266.198 24.1364C266.611 23.438 267.184 22.8914 267.914 22.5014C268.645 22.1047 269.471 21.9097 270.378 21.9097C271.126 21.9097 271.804 22.033 272.411 22.273C273.019 22.5197 273.528 22.883 273.942 23.3597L272.904 24.3747C272.225 23.6947 271.417 23.3597 270.457 23.3597C269.832 23.3597 269.279 23.4914 268.794 23.748C268.309 24.013 267.923 24.383 267.65 24.8614C267.377 25.3297 267.235 25.8764 267.235 26.4864C267.235 27.0797 267.377 27.618 267.65 28.0864C267.923 28.563 268.309 28.9347 268.794 29.208C269.277 29.4814 269.832 29.6147 270.449 29.6147C271.135 29.6147 271.742 29.4647 272.27 29.1547V26.3814Z" fill="#333333"/>
<path fill-rule="evenodd" clip-rule="evenodd" d="M174.078 0.907959H176.234V39.308H174.078V0.907959Z" fill="#333333"/>
</svg>
